<svg xmlns="http://www.w3.org/2000/svg" baseprofile="tiny" fill="#ececec" height="237.69421498025264" stroke="black" stroke-linecap="round" stroke-linejoin="round" stroke-width=".1" version="1.2" width="446.9586775296211"><rect id="backgroundrect" width="100%" height="100%" x="0" y="0" fill="none" stroke="none" class="" style=""/>
 
 
 
 
 
 
 
 
 
 
 
 
 
 
 
 
 
 
 
 
 
 
 
 
 
 
 
 
 
 
 
 
 
 
 
 
 
 
 
 
 
 
 
 
 
 
 
 
<g class="currentLayer" style=""><title>Layer 1</title><path d="M148.29588012695308,109.28018798828123 l-0.9,2.4 l0.1,0.8 l1.6,2.9 l2.3,2.9 l-0.6000000000000001,0.7000000000000001 l-0.6000000000000001,1.9 l0.7000000000000001,2 l-3.9,0.30000000000000004 l-2.5,-0.9 l-1.3,1.4 l2.6,0.7000000000000001 l0.5,1.1 l-0.5,1.4 l-2.2,1.2 l0.4,1.5 l-0.5,0.7000000000000001 l1.1,1.6 l-0.30000000000000004,1.8 l-2.5,0.5 l-1.8,1.7000000000000002 l-1.3,0.9 l-0.1,1.9 l-2.4,-0.5 l-1.6,0.2 l-2.3,1.1 l-2.8,-0.2 l-2.6,0.2 l-1.9,0.7000000000000001 l-1,1.3 l-3,1.2 l-5,-0.7000000000000001 l-5,-0.9 l-2.6,-0.5 l-4,-0.30000000000000004 l-8.6,-1.5 l-1.1,-0.5 l-3.1,-3.5 l0,-2.3 l-4.7,1.5 l-3.1,-0.2 l-3.4,0.30000000000000004 l-1.4,0.6000000000000001 l-1.2,2.2 l-1.1,0.4 l-2.1,-0.4 l-0.9,-0.8 l-3,-0.30000000000000004 l-0.5,-1.5 l-0.8,-0.30000000000000004 l-2,1.9 l-2.3,-0.4 l-1.5,-0.8 l-0.4,-1 l-3.3,-0.8 l0.30000000000000004,-0.8 l-1.1,-2.5 l1,-3 l-0.9,-0.7000000000000001 l1.7000000000000002,-0.5 l0.7000000000000001,-0.5 l3.5,1.6 l0.9,1.4 l1.2,0.30000000000000004 l-0.1,1.3 l1.6,-0.5 l1,-1.6 l0.2,-1.9 l2.8,-0.1 l2.7,0.4 l1.4,1.9 l3.8,-0.5 l1.1,-0.9 l3.9,-1.5 l5.7,-0.5 l0.1,-1.4 l2,0.30000000000000004 l1.5,0.8 l2.5,-0.5 l1.1,0.5 l0.2,1.1 l1.2,0.9 l1.7000000000000002,0.4 l0.30000000000000004,-1.5 l-0.30000000000000004,-1.9 l-1.7000000000000002,-0.30000000000000004 l0.6000000000000001,-1.3 l-0.1,-1.3 l-2.5,-2.8 l0.6000000000000001,-1.3 l3.1,-1.8 l2.9,-0.8 l1,-1 l0.7000000000000001,-2.9 l2.3,0.9 l1.3,-0.9 l0.2,-2.8 l2.2,1.2 l0.8,1.3 l3.9,0.4 l1.4,-0.7000000000000001 l2.5,0.4 l0.1,-1.1 l1.3,-1.6 l1.2,0 l0.30000000000000004,-3.2 l1.2,-0.2 l1.6,0.8 l1.4,-0.4 l4.8,1.7000000000000002 l1.5,-0.1 l3,1.7000000000000002 l3.8,0.2 l1.2,-0.9 l5.1,1.5 l1,1.6 z" id="AT" name="Austria" class="">
 </path><path d="M300.09588012695315,183.98018798828127 l0.2,3.7 l-0.9,1.8 l-2,-0.6000000000000001 l-2.2,0.5 l-1,2 l-1.2,1.2 l0,2.6 l0.4,4.2 l-1.6,0.7000000000000001 l-2.9,3.7 l3,1.8 l1.7000000000000002,2.2 l2.4,2.5 l0.5,1.2 l-1.7000000000000002,-0.2 l-0.9,0.4 l-1.8,0 l-1.5,0.6000000000000001 l-3.4,-2.5 l-3.5,0.30000000000000004 l-1.5,1.1 l-3.4,0.4 l-1,2.2 l-1.9,0.30000000000000004 l-0.30000000000000004,1.4 l-1.6,-0.5 l-1.6,1.1 l0.7000000000000001,1 l0.9,2.7 l-0.2,0.8 l-2.5,1.2 l-1.8,-0.30000000000000004 l-3.2,0.4 l-3.4,0.9 l-1.7000000000000002,-1.1 l-3.7,-1.2 l-0.9,0.6000000000000001 l-2.4,-1.4 l-1.2,-1.7000000000000002 l-1.6,0.5 l-4.2,-0.1 l-0.2,0.9 l-1.9,0.2 l-3,1.1 l-2.6,-0.2 l-2.4,0.2 l-1,1 l-3,-0.2 l0,-4.2 l0.5,-1.7000000000000002 l-0.9,-1 l-1.7000000000000002,-3.3 l-3.4,-1.8 l-3.3,-3.2 l1,-0.30000000000000004 l1.1,-1.7000000000000002 l-1.4,-2.9 l0,-3.3 l1.1,-0.6000000000000001 l1.8,-0.1 l1.1,-1.6 l1.6,-1.7000000000000002 l0.30000000000000004,-1.4 l-1.6,-1 l-1.3,-1.6 l-2.9,-1.5 l-2.4,-3.9 l-0.6000000000000001,-2.4 l0.4,-2.3 l2.1,-1 l0.2,-1.9 l0.9,-0.7000000000000001 l4.3,2.5 l-1.8,2 l0.9,1.8 l3.7,-0.6000000000000001 l3.9,0.30000000000000004 l5.3,1 l3.5,0.4 l2.5,-0.5 l9.4,1.7000000000000002 l4.2,0.2 l2.3,-0.6000000000000001 l1.6,-0.9 l1.2,-1.6 l3.3,-2.1 l3.2,-1.2 l4.4,-0.9 l2.9,-0.4 l4.5,2.3 l3.2,0.4 l0.9,0.6000000000000001 l1.7000000000000002,-0.5 l2.5,2.6 l2.2,0.7000000000000001 l2.6,0.5 l2,0 z" id="BG" name="Bulgaria" class="">
 </path><path d="M108.3958801269531,29.58018798828124 l-3.4,-0.1 l-0.2,-1.7000000000000002 l-1.1,-1 l-0.1,-1 l4.7,2.6 l0.1,1.2 zm-34.8,-8.1 l-1.8,0 l-1.4,-0.7000000000000001 l0.8,-1 l1.7000000000000002,0.4 l0.7000000000000001,1.3 zm28.3,0.5 l-1.3,0.7000000000000001 l-1.3,0 l-1.3,1.3 l-2.1,-1.1 l-0.5,-1.1 l0.1,-2.2 l0.6000000000000001,-1.4 l2,-0.9 l0.9,1.2 l1.7000000000000002,0.6000000000000001 l-0.5,1.7000000000000002 l1.7000000000000002,1.2 zm-46.6,-6.6 l1.8,0.7000000000000001 l1.6,1.6 l0.1,1.4 l-1.7000000000000002,1.6 l3.2,-0.30000000000000004 l0.8,1.2 l1.7000000000000002,-0.4 l4.5,1.8 l3.2,-0.9 l0.7000000000000001,1.4 l-0.6000000000000001,1.5 l-2.2,1.6 l1.4,1.2 l2.1,-0.2 l3.6,0.9 l3.3,-2.5 l1.1,-0.5 l3.6,-0.30000000000000004 l5.1,-4.5 l5.3,0.9 l1.5,1.9 l3.7,2.1 l3.2,-0.2 l1.3,2 l0.8,2.5 l1.9,1.3 l2.8,0.5 l0.7000000000000001,2.6 l1.8,4.1 l-0.30000000000000004,2.7 l-1.9,1.8 l-0.7000000000000001,1.6 l1.6,1.4 l3.3,2.1 l1.4,1.7000000000000002 l-0.6000000000000001,2.6 l2,2.3 l0.8,1.9 l-0.7000000000000001,2.6 l-0.8,1.1 l1.9,3.1 l0,1.6 l2.2,0.9 l1.6,3.2 l-0.4,2.3 l-1.6,3.6 l-0.9,0.7000000000000001 l-1.4,-0.6000000000000001 l0,-0.9 l-1.5,-1.5 l-2.2,-0.4 l-0.8,0.6000000000000001 l1.5,1.5 l-1.9,0.6000000000000001 l-3.5,1.5 l-4.4,1 l-0.6000000000000001,1.2 l-1.1,-0.1 l-1.6,0.7000000000000001 l-0.6000000000000001,1 l-2,0.30000000000000004 l-0.8,1.3 l-2.1,-0.4 l-2.6,0.6000000000000001 l-1.1,0.6000000000000001 l-1.9,2.6 l-1.9,-2 l-0.5,0.7000000000000001 l2.5,3.4 l2.3,1.3 l0.6000000000000001,1.6 l-1.2,1.7000000000000002 l1.4,1.5 l1.8,2.7 l2.3,2 l1.3,0 l2.9,2.6 l2.5,1.5 l1.3,1.6 l1.3,0 l2.9,2.2 l0.6000000000000001,0.7000000000000001 l-0.2,2.8 l-1.3,0.9 l-2.3,-0.9 l-0.7000000000000001,2.9 l-1,1 l-2.9,0.8 l-3.1,1.8 l-0.6000000000000001,1.3 l2.5,2.8 l0.1,1.3 l-0.6000000000000001,1.3 l1.7000000000000002,0.30000000000000004 l0.30000000000000004,1.9 l-0.30000000000000004,1.5 l-1.7000000000000002,-0.4 l-1.2,-0.9 l-0.2,-1.1 l-1.1,-0.5 l-2.5,0.5 l-1.5,-0.8 l-2,-0.30000000000000004 l-0.1,1.4 l-5.7,0.5 l-3.9,1.5 l-1.1,0.9 l-3.8,0.5 l-1.4,-1.9 l-2.7,-0.4 l-2.8,0.1 l-0.2,1.9 l-1,1.6 l-1.6,0.5 l0.1,-1.3 l-1.2,-0.30000000000000004 l-0.9,-1.4 l-3.5,-1.6 l-0.7000000000000001,0.5 l-2.2,-1.2 l-5.1,-2.3 l1,1.6 l-3.7,0.2 l-1.1,-0.9 l-0.8,0.2 l-1.4,-1 l-1.3,0 l-1.3,1.2 l0.2,1.5 l-2.6,-0.2 l-3.3,0.6000000000000001 l-2.8,-0.1 l-1,-0.30000000000000004 l-1.1,-1.3 l0,-1.5 l0.6000000000000001,-2 l-0.2,-2.4 l0.30000000000000004,-1.5 l1,-1.8 l1.4,-5.5 l3.5,-3.8 l-0.1,-1.3 l-1.6,-0.6000000000000001 l-4.8,-0.8 l-2,-1.4 l-3,0.6000000000000001 l-2.1,-0.1 l-0.30000000000000004,-0.9 l-1.4,-0.4 l-1.8,0.7000000000000001 l-3.5,-4.3 l-1.4,-0.1 l0.6000000000000001,-3 l0.9,-0.9 l0,-1.4 l-2.8,-1.1 l-1.5,-1.6 l-0.30000000000000004,-2.2 l0.6000000000000001,-1.7000000000000002 l2.3,-1.3 l-0.4,-2 l-1.7000000000000002,-0.7000000000000001 l0.4,-1.5 l-3,-2.3 l0.6000000000000001,-2.4 l-1.9,-1.2 l0.5,-0.8 l2.2,-1.6 l-0.7000000000000001,-1.2 l1.3,-2.8 l0,-1.2 l-3.1,-4.1 l0.7000000000000001,-1.1 l1.8,-0.7000000000000001 l2.3,0.8 l4.5,-1.3 l0.7000000000000001,-1 l-1,-0.9 l0.30000000000000004,-0.9 l2.6,-1.6 l0.6000000000000001,-2.6 l-0.8,-1 l-2.6,-0.30000000000000004 l-0.7000000000000001,-1 l0.6000000000000001,-1.6 l3.1,0.1 l1.1,-3.8 l0.7000000000000001,-1.7000000000000002 l-0.1,-4.3 l-1.7000000000000002,-1.4 l0.5,-2.7 l1.1,-1.4 l0.9,-0.4 l4,-0.30000000000000004 l4.5,0.1 l1.9,2.2 l-0.6000000000000001,1.2 l1.6,0.30000000000000004 l0.9,-2.4 l1.4,0.8 l1.1,-0.1 l-0.5,-1.7000000000000002 l0.2,-1.6 l0.9,-1.4 l3.3,0.6000000000000001 l3.6,-0.30000000000000004 l0.1,-0.6000000000000001 l-2.8,-0.5 l-0.9,-1.1 l-0.2,-3.9 l-1.5,-0.8 l-1.6,0.30000000000000004 l0,-1.5 l3.4,-1.1 l0,-1 l-3.4,-3.8 l-0.2,-1.6 l2.7,0.1 l5.2,1.3 l3.1,-0.7000000000000001 l1.5,0.4 z" id="DE" name="Germany" class="">
 </path><path d="M151.69588012695317,195.5801879882813 l2.3,0.4 l-1.1,0.9 l-1.2,-1.3 zm12.9,1.5 l1.6,-0.1 l0.6000000000000001,0.9 l6.2,3.8 l1.7000000000000002,0.7000000000000001 l1.2,1.9 l-4.8,-3.1 l-4.4,-2.5 l-3.1,-0.7000000000000001 l-4.3,-2 l-0.5,-0.9 l5.8,2 zm-6.3,-3.5 l-0.8,0.1 l-5.6,-0.1 l-1.7000000000000002,-0.30000000000000004 l-0.5,-1.3 l1.8,0.2 l0.5,0.6000000000000001 l6.3,0.8 zm-5.3,-2.3 l-2,0.1 l-2.6,-0.8 l0.30000000000000004,-1.1 l4.8,0.6000000000000001 l-0.5,1.2 zm-21.2,-16.5 l-0.30000000000000004,0.4 l-3.3,-2.7 l-0.30000000000000004,-1.9 l2.8,2.7 l1.1,1.5 zm-4.9,-6.5 l-1.9,-0.2 l0.8,-1.1 l1.1,1.3 zm-4.2,1.5 l-0.9,-0.1 l-1.7000000000000002,-4.2 l0.4,-1.2 l-0.8,-2 l0.9,-0.30000000000000004 l0.5,2.1 l1,0.9 l-0.1,1.6 l0.7000000000000001,3.2 zm3.7,-4.9 l-1.5,0.30000000000000004 l-1,-1 l-1.3,-0.2 l-1,-1 l1,-0.7000000000000001 l0.5,-1.2 l3.3,3.8 zm49.5,-14.7 l-0.7000000000000001,1.5 l1.6,2.7 l0.2,1.6 l1.3,0.4 l-0.4,2 l1.2,1 l3,1 l0.9,1.5 l-2.3,0.1 l-1.7000000000000002,0.4 l0.7000000000000001,2.6 l-1,1.6 l-2.2,-0.2 l-1.3,-2.2 l-1.1,-0.8 l-2.2,-0.2 l-2.6,-0.7000000000000001 l-1.8,0.2 l-1.8,-0.30000000000000004 l-2.2,1 l-1.6,-1.3 l-1.7000000000000002,0.6000000000000001 l-2.8,-0.7000000000000001 l-2.5,-0.1 l-2.7,-1.6 l-1.5,1.2 l-3.2,-0.30000000000000004 l-2.7,3.2 l-1.8,-1 l-1.7000000000000002,-1.8 l-1.8,-0.4 l-1.2,0.6000000000000001 l-0.30000000000000004,5 l0.1,1.4 l1.9,1.3 l3.4,3.2 l1.3,4 l2.3,2.4 l2.8,2.3 l1.7000000000000002,2 l5,4.1 l2.4,1.1 l0.4,2.2 l1.5,1.6 l3,2.5 l-0.30000000000000004,1.6 l-3.5,-2.8 l-2.6,-1.5 l-3.1,-2.8 l-3.8,-1.1 l-2.7,-1.2 l-3.3,0.6000000000000001 l-1.8,-0.2 l-0.7000000000000001,-2.2 l-5.8,-3.9 l-4.3,-4 l-0.8,-1.3 l3.1,-1.2 l-1.4,-0.8 l-3.9,-3.4 l-1.2,-1.6 l-0.1,-4.1 l-0.8,-1.7000000000000002 l-2.9,-2.2 l-1.1,-1.1 l-2.1,-0.7000000000000001 l-1.4,0.9 l-0.30000000000000004,1.9 l-3,5 l-1.3,0 l-3.1,-4.2 l-0.5,-1.9 l-1.3,-3.9 l0.7000000000000001,-0.5 l0.5,0.6000000000000001 l3.3,0.8 l1.4,-1.3 l1.1,0.5 l3.6,-0.1 l0.6000000000000001,-0.30000000000000004 l1.2,-2.2 l2.6,2.1 l1.5,0.7000000000000001 l1.3,-0.5 l2,0.7000000000000001 l1.6,0.2 l1.2,-0.4 l-0.8,-2.3 l0.7000000000000001,-0.7000000000000001 l-1,-1.1 l2.1,-1 l2.1,-0.6000000000000001 l0.4,-1.1 l-0.2,-2.2 l-0.9,-0.9 l0.4,-1.4 l4.4,-1.7000000000000002 l0.7000000000000001,-1 l2,0 l0,-1.7000000000000002 l0.9,-0.8 l2.5,0.6000000000000001 l2.9,1.2 l1.7000000000000002,1.2 l0.9,1.3 l2.7,1.8 l2.2,2.2 l1.3,0.7000000000000001 l2.5,0.6000000000000001 l1.3,1.3 l3.3,0.9 l4.9,0.2 l2.5,-0.9 l1.1,-1.4 l2.9,-0.4 z" id="HR" name="Croatia" class="">
 </path><path d="M211.49588012695312,112.18018798828126 l1.5,0 l1.4,2.3 l2.2,0.8 l0.9,1.1 l2.3,0.4 l0.9,0.7000000000000001 l0.7000000000000001,1.7000000000000002 l-2.2,2.3 l-4.6,1.1 l-1.9,2.4 l-1.2,1 l0.1,1.7000000000000002 l-1.4,1.4 l-0.7000000000000001,2.5 l-1.4,1.5 l0,1.2 l-1.6,2.7 l0.2,1.3 l-2.1,1.5 l-1.5,4.7 l-1.3,0.9 l-2.6,-0.30000000000000004 l-2.5,2 l-1.4,-0.5 l-3.2,0.9 l-1,-0.5 l-2.8,-0.30000000000000004 l-1.1,0.2 l-2.9,-0.4 l-1,0.30000000000000004 l-1.5,1.6 l-2.2,1 l-1.6,-0.5 l-2.1,1.3 l-2.9,0.4 l-1.1,1.4 l-2.5,0.9 l-4.9,-0.2 l-3.3,-0.9 l-1.3,-1.3 l-2.5,-0.6000000000000001 l-1.3,-0.7000000000000001 l-2.2,-2.2 l-2.7,-1.8 l-0.9,-1.3 l-1.7000000000000002,-1.2 l-2.9,-1.2 l-1.9,-2.2 l-1.4,-3.3 l-2.4,-0.1 l1.8,-1.7000000000000002 l2.5,-0.5 l0.30000000000000004,-1.8 l-1.1,-1.6 l0.5,-0.7000000000000001 l-0.4,-1.5 l2.2,-1.2 l0.5,-1.4 l-0.5,-1.1 l-2.6,-0.7000000000000001 l1.3,-1.4 l2.5,0.9 l3.9,-0.30000000000000004 l-0.7000000000000001,-2 l0.6000000000000001,-1.9 l0.6000000000000001,-0.7000000000000001 l2.1,0.30000000000000004 l4.2,2.7 l1.6,0.7000000000000001 l4.7,0.1 l7,-0.4 l0.6000000000000001,-1 l-0.5,-1.3 l0.4,-1 l1.4,-0.7000000000000001 l4.3,-0.4 l2.4,-0.6000000000000001 l1,-1.5 l0.7000000000000001,-0.2 l3.5,1.4 l5,-2.5 l1.6,-3.5 l1.8,-0.4 l2.7,0.1 l2.5,0.6000000000000001 l4.6,-0.7000000000000001 l1.4,0.9 l2.2,2.2 l0.6000000000000001,0.2 l4.3,-1.1 z" id="HU" name="Hungary" class="">
 </path><path d="M15.895880126953102,86.08018798828124 l0.30000000000000004,2.2 l1.5,1.6 l2.8,1.1 l0,1.4 l-0.9,0.9 l-0.6000000000000001,3 l-1.3,-0.7000000000000001 l-2,0.6000000000000001 l-1.4,0 l-2.1,-1.2 l1.1,-1.7000000000000002 l-2,-2.4 l0.2,-1.7000000000000002 l1.4,-2.5 l1.3,-1.3 l1.7000000000000002,0.7000000000000001 z" id="LU" name="Luxembourg" class="">
 </path><path d="M291.8958801269531,157.58018798828124 l-2,-2.3 l0.9,-0.7000000000000001 l-1.4,-5 l-0.1,-2.6 l0.9,-4.8 l-0.5,-2.9 l-1.4,-2.3 l-1.4,-2.9 l-3,-2.1 l-1.3,-1.7000000000000002 l-2.1,-1.8 l-2.5,-3.2 l-1.5,-1.3 l-3,-4.9 l-2.5,-3 l-2.5,-1.6 l-2.1,0 l0.2,-0.6000000000000001 l2.3,-1.4 l0.7000000000000001,0.2 l4,0.1 l1.2,-1 l0.8,0.30000000000000004 l1.6,-1 l3.5,1 l3.6,2.4 l2.5,0.30000000000000004 l0.6000000000000001,1.2 l5.6,0.6000000000000001 l1.4,1.9 l1.4,1 l1.4,-0.7000000000000001 l1.4,1.4 l0.6000000000000001,2.3 l-0.6000000000000001,3.1 l0.6000000000000001,1.2 l2.3,1.2 l2.9,2 l0,2.4 l0.9,1.9 l2,1.3 l2.1,0.8 l1,1.6 l0.2,2.9 l2.9,1.7000000000000002 l-0.6000000000000001,0.7000000000000001 l-2.9,0.4 l-1.2,-1.3 l-1.6,0.6000000000000001 l-2.1,-0.8 l-1.9,-0.2 l-2.1,-1 l-2.5,1.6 l0.5,2.1 l1,1.7000000000000002 l-0.4,2 l-2.3,1.7000000000000002 l0,1.3 l-2.5,2.9 l0.5,1.4 l-0.4,1 l-2,0.2 l-1.1,0.7000000000000001 z" id="MD" name="Moldova" class="">
 </path><path d="M291.8958801269531,157.58018798828124 l1.5,1.6 l1.8,0.9 l4,0.9 l0.6000000000000001,-1.2 l0.9,0.30000000000000004 l1.6,-0.5 l2.2,-1.3 l2.2,-0.2 l2.2,0.7000000000000001 l1.9,1.8 l-0.2,4.3 l-0.7000000000000001,2.1 l-6.2,1.3 l0.4,-0.6000000000000001 l-0.7000000000000001,-2 l-1,-1 l-0.9,1.1 l0.6000000000000001,1.7000000000000002 l-0.7000000000000001,1.4 l-0.2,2.4 l0.6000000000000001,0.9 l-1.6,2 l-0.5,1.3 l0.8,4.8 l-0.4,3.7 l-2,0 l-2.6,-0.5 l-2.2,-0.7000000000000001 l-2.5,-2.6 l-1.7000000000000002,0.5 l-0.9,-0.6000000000000001 l-3.2,-0.4 l-4.5,-2.3 l-2.9,0.4 l-4.4,0.9 l-3.2,1.2 l-3.3,2.1 l-1.2,1.6 l-1.6,0.9 l-2.3,0.6000000000000001 l-4.2,-0.2 l-9.4,-1.7000000000000002 l-2.5,0.5 l-3.5,-0.4 l-5.3,-1 l-3.9,-0.30000000000000004 l-3.7,0.6000000000000001 l-0.9,-1.8 l1.8,-2 l-4.3,-2.5 l-0.8,-1.2 l-1.6,-0.9 l-0.5,-1.7000000000000002 l2.5,-1.8 l-3,-1.6 l-1.7000000000000002,0.5 l-1.7000000000000002,1.8 l-1.3,0.2 l-1,-1.2 l-1.5,-0.7000000000000001 l-3.5,-0.7000000000000001 l-1.5,-1.2 l-2.1,-0.6000000000000001 l0.2,-0.6000000000000001 l1.8,-0.8 l-2.3,-1.1 l1.5,-2 l-0.9,-1.1 l-2.6,-0.8 l-3.8,-1.9 l-2.2,-1.8 l-0.4,-4.1 l-0.8,0.2 l-1.8,-2 l-2.9,-1.7000000000000002 l-1.7000000000000002,-2 l3.2,-0.9 l1.4,0.5 l2.5,-2 l2.6,0.30000000000000004 l1.3,-0.9 l1.5,-4.7 l2.1,-1.5 l-0.2,-1.3 l1.6,-2.7 l0,-1.2 l1.4,-1.5 l0.7000000000000001,-2.5 l1.4,-1.4 l-0.1,-1.7000000000000002 l1.2,-1 l1.9,-2.4 l4.6,-1.1 l2.2,-2.3 l2.1,-0.9 l0.9,-1.2 l0.7000000000000001,0 l2.7,1.5 l2.7,-0.1 l6.9,1.4 l3.6,-0.7000000000000001 l1.2,0.30000000000000004 l4.3,3.3 l2.1,-0.5 l1,-1.2 l3.4,-1.3 l8.4,-1.2 l1.1,-1.9 l0.2,-1.4 l3.7,-0.8 l2.1,0 l2.5,1.6 l2.5,3 l3,4.9 l1.5,1.3 l2.5,3.2 l2.1,1.8 l1.3,1.7000000000000002 l3,2.1 l1.4,2.9 l1.4,2.3 l0.5,2.9 l-0.9,4.8 l0.1,2.6 l1.4,5 l-0.9,0.7000000000000001 l2,2.3 z" id="RO" name="Romania" class="">
 </path><path d="M192.09588012695315,147.48018798828127 l1.7000000000000002,2 l2.9,1.7000000000000002 l1.8,2 l0.8,-0.2 l0.4,4.1 l2.2,1.8 l3.8,1.9 l2.6,0.8 l0.9,1.1 l-1.5,2 l2.3,1.1 l-1.8,0.8 l-0.2,0.6000000000000001 l2.1,0.6000000000000001 l1.5,1.2 l3.5,0.7000000000000001 l1.5,0.7000000000000001 l1,1.2 l1.3,-0.2 l1.7000000000000002,-1.8 l1.7000000000000002,-0.5 l3,1.6 l-2.5,1.8 l0.5,1.7000000000000002 l1.6,0.9 l0.8,1.2 l-0.9,0.7000000000000001 l-0.2,1.9 l-2.1,1 l-0.4,2.3 l0.6000000000000001,2.4 l2.4,3.9 l2.9,1.5 l1.3,1.6 l1.6,1 l-0.30000000000000004,1.4 l-1.6,1.7000000000000002 l-1.1,1.6 l-1.8,0.1 l-1.1,0.6000000000000001 l0,3.3 l1.4,2.9 l-1.1,1.7000000000000002 l-1,0.30000000000000004 l-1.4,-0.7000000000000001 l-2.3,0.8 l-1.9,-0.30000000000000004 l-2,0.9 l-2.2,0.30000000000000004 l-0.6000000000000001,-1.3 l1,-0.9 l1.2,-3.2 l0.2,-1.2 l-4.7,-1.2 l0,-1.3 l-2.2,-1.2 l-0.2,-0.7000000000000001 l-2.3,-2.1 l-2.8,-1.3 l-1.1,-1.3 l-1.7000000000000002,0.9 l0.6000000000000001,1.6 l-0.4,1 l-1.7000000000000002,1.3 l0,1.4 l-1.5,0.5 l-0.1,-1 l-5.3,-2.9 l-2.1,-0.5 l-3,-1.6 l-1.9,-2 l-2.6,-1.7000000000000002 l-0.4,-1.2 l0.7000000000000001,-0.8 l2.5,0.30000000000000004 l0.2,-2.2 l-3.2,-3.7 l0.5,-0.8 l3.1,0.1 l0.30000000000000004,-0.8 l-3.3,-2.9 l-2.4,-1.2 l-0.5,-0.8 l0.1,-2.6 l1.6,-2.7 l0.5,-2.5 l-1.5,-0.8 l-2.8,0.7000000000000001 l1,-1.6 l-0.7000000000000001,-2.6 l1.7000000000000002,-0.4 l2.3,-0.1 l-0.9,-1.5 l-3,-1 l-1.2,-1 l0.4,-2 l-1.3,-0.4 l-0.2,-1.6 l-1.6,-2.7 l0.7000000000000001,-1.5 l2.1,-1.3 l1.6,0.5 l2.2,-1 l1.5,-1.6 l1,-0.30000000000000004 l2.9,0.4 l1.1,-0.2 l2.8,0.30000000000000004 l1,0.5 z" id="RS" name="Serbia" class="">
 </path><path d="M215.29588012695308,102.08018798828124 l-1.5,3 l-0.8,2.9 l-1.6,1.7000000000000002 l0.1,2.5 l-4.3,1.1 l-0.6000000000000001,-0.2 l-2.2,-2.2 l-1.4,-0.9 l-4.6,0.7000000000000001 l-2.5,-0.6000000000000001 l-2.7,-0.1 l-1.8,0.4 l-1.6,3.5 l-5,2.5 l-3.5,-1.4 l-0.7000000000000001,0.2 l-1,1.5 l-2.4,0.6000000000000001 l-4.3,0.4 l-1.4,0.7000000000000001 l-0.4,1 l0.5,1.3 l-0.6000000000000001,1 l-7,0.4 l-4.7,-0.1 l-1.6,-0.7000000000000001 l-4.2,-2.7 l-2.1,-0.30000000000000004 l-2.3,-2.9 l-1.6,-2.9 l-0.1,-0.8 l0.9,-2.4 l1.1,-2.8 l1.4,-1.2 l3.6,0.5 l1.7000000000000002,-0.2 l1.5,-0.7000000000000001 l2.1,-1.9 l1.6,-0.8 l0.7000000000000001,-3 l2.3,-1.2 l0.6000000000000001,-0.8 l2,-1.5 l2.8,-0.30000000000000004 l1.3,0.2 l0.5,1.5 l2.2,0 l1,-1.7000000000000002 l2.2,-1.3 l3,3 l1.4,0.4 l0.6000000000000001,2.7 l1.4,-0.4 l1.7000000000000002,0.6000000000000001 l1.1,-2.1 l2.3,-1 l3,-0.1 l2.4,1 l1.8,0.1 l1.4,-1.5 l3.2,-0.2 l3.6,0.30000000000000004 l3.1,1 l1,0.7000000000000001 l0.8,1.4 l5.7,1.9 l0.9,0.2 z" id="SK" name="Slovakia" class="">
 </path><path d="M337.19588012695317,145.98018798828127 l0,0.6000000000000001 l-3.9,-0.8 l-0.9,-0.9 l4.8,1.1 zm-26.4,14.6 l-1.9,-1.8 l-2.2,-0.7000000000000001 l-2.2,0.2 l-2.2,1.3 l-1.6,0.5 l-0.9,-0.30000000000000004 l-0.6000000000000001,1.2 l-4,-0.9 l-1.8,-0.9 l-1.5,-1.6 l1.1,-0.7000000000000001 l2,-0.2 l0.4,-1 l-0.5,-1.4 l2.5,-2.9 l0,-1.3 l2.3,-1.7000000000000002 l0.4,-2 l-1,-1.7000000000000002 l-0.5,-2.1 l2.5,-1.6 l2.1,1 l1.9,0.2 l2.1,0.8 l1.6,-0.6000000000000001 l1.2,1.3 l2.9,-0.4 l0.6000000000000001,-0.7000000000000001 l-2.9,-1.7000000000000002 l-0.2,-2.9 l-1,-1.6 l-2.1,-0.8 l-2,-1.3 l-0.9,-1.9 l0,-2.4 l-2.9,-2 l-2.3,-1.2 l-0.6000000000000001,-1.2 l0.6000000000000001,-3.1 l-0.6000000000000001,-2.3 l-1.4,-1.4 l-1.4,0.7000000000000001 l-1.4,-1 l-1.4,-1.9 l-5.6,-0.6000000000000001 l-0.6000000000000001,-1.2 l-2.5,-0.30000000000000004 l-3.6,-2.4 l-3.5,-1 l-1.6,1 l-0.8,-0.30000000000000004 l-1.2,1 l-4,-0.1 l-0.7000000000000001,-0.2 l-2.3,1.4 l-0.2,0.6000000000000001 l-3.7,0.8 l-0.2,1.4 l-1.1,1.9 l-8.4,1.2 l-3.4,1.3 l-1,1.2 l-2.1,0.5 l-4.3,-3.3 l-1.2,-0.30000000000000004 l-3.6,0.7000000000000001 l-6.9,-1.4 l-2.7,0.1 l-2.7,-1.5 l-0.7000000000000001,0 l-0.9,1.2 l-2.1,0.9 l-0.7000000000000001,-1.7000000000000002 l-0.9,-0.7000000000000001 l-2.3,-0.4 l-0.9,-1.1 l-2.2,-0.8 l-1.4,-2.3 l-1.5,0 l-0.1,-2.5 l1.6,-1.7000000000000002 l0.8,-2.9 l1.5,-3 l3.3,0.7000000000000001 l0.4,-0.9 l-1.9,-1.4 l0.1,-1.8 l-1.5,-3.8 l0.6000000000000001,-1 l3.4,-4.4 l2.4,-2.7 l4.8,-4.6 l3,-0.5 l1.2,-1.8 l-0.1,-1.3 l-1.8,-2.6 l1.2,-1.3 l-1.4,-1 l-1.9,-2.8 l-2.7,-2.8 l0,-1.3 l-1.2,-1.8 l-0.1,-1.4 l1.1,-0.5 l1.9,0.30000000000000004 l1.1,0.5 l1.9,-1.2 l1.6,-1.6 l0.8,-1.4 l5.9,-0.5 l2.3,-0.5 l2.4,-0.1 l7.8,0.4 l6.5,1.5 l6.1,0.9 l2.3,0 l1.8,2.1 l1,0.30000000000000004 l3,-0.1 l1.1,0.4 l0.8,1.4 l1.2,-1.7000000000000002 l1.9,0.5 l1.9,-0.7000000000000001 l5.1,1 l0.8,1.3 l1,0.30000000000000004 l0.6000000000000001,-1.1 l3.8,-1.6 l2.5,3 l0.6000000000000001,0.5 l2.3,-0.8 l7.1,-0.6000000000000001 l2,1.1 l0.5,1.2 l2.7,0.9 l0.8,-1.4 l-1.8,-3.6 l1,-3.3 l0.8,-1.2 l2.2,-2.3 l1.1,-0.5 l1.7000000000000002,0.4 l1.4,-0.8 l5,0.1 l2.6,0.8 l1.7000000000000002,-0.1 l1.8,-0.9 l0.5,-2.4 l1.6,-0.6000000000000001 l3.7,0.9 l1,-0.1 l2.7,-1.2 l1.6,-0.2 l2,0.30000000000000004 l3.4,-0.2 l2.5,1.4 l1.4,1.4 l1.7000000000000002,2.7 l4,3 l-0.1,1 l-2.9,0.5 l1.3,1.9 l0.5,2 l1.2,1.7000000000000002 l-0.4,1 l3.1,0.1 l2.9,1 l4.1,-0.5 l1.5,2.2 l1.9,0.2 l0.2,0.9 l1.4,2.8 l0.9,1.1 l-0.2,1.8 l0.5,1 l1.9,1.6 l0.7000000000000001,1 l1.1,0.4 l2.3,-1.4 l2.8,0.4 l2.7,2 l2.3,0 l1.7000000000000002,1.1 l1.4,-1.3 l4.3,-0.9 l2.3,-1 l1,0.1 l2.3,1.8 l0.5,1.2 l1.5,1.6 l4.7,2.9 l1.3,-0.6000000000000001 l0.9,-1.5 l2.6,1.4 l2.4,0.2 l3.6,1.9 l1.4,0.1 l1.6,-0.6000000000000001 l2,1.8 l1.9,0.2 l4.4,2.3 l2.9,-0.30000000000000004 l1,0.8 l-0.1,1.7000000000000002 l1,0.9 l-0.1,2.6 l-1.7000000000000002,2.1 l-2.3,0.8 l1.1,1.5 l3.1,0.9 l-0.9,0.9 l-1.4,-0.2 l-0.8,1 l-0.30000000000000004,2.3 l2.5,0.7000000000000001 l1.2,2.8 l0,1.1 l1.2,0.30000000000000004 l-1.3,4.7 l-0.1,1.8 l-4.2,0.2 l-6,-0.30000000000000004 l-0.9,0.2 l-0.9,1.9 l-2.3,1.4 l-1.7000000000000002,0.2 l-0.8,0.8 l0,2.3 l-0.4,1.3 l1.1,0.7000000000000001 l-0.7000000000000001,1.6 l0.5,1.3 l-0.5,0.1 l-4.3,-0.2 l-3.4,0.30000000000000004 l-2.1,2.4 l-1.5,0 l-3.2,1.5 l-1.4,1.7000000000000002 l-1.4,-0.8 l-3.1,0.5 l-1.7000000000000002,1.1 l-3.1,-0.1 l-2.3,0.6000000000000001 l-4.6,3.8 l-1.3,0.1 l-1,-1 l-1.6,2.6 l-2.4,1.2 l0.6000000000000001,3.1 l2.8,4.5 l3.6,3.9 l1.7000000000000002,1.4 l2.4,0.7000000000000001 l3.1,-1.4 l2.4,0.4 l1.7000000000000002,-1.2 l1.5,-0.1 l3.7,1 l-1.1,2.5 l-0.30000000000000004,2.6 l-1.9,0.6000000000000001 l-2.2,-0.1 l-2.2,0.4 l-2.7,-1.5 l-2.5,0 l-1.1,1.9 l-2.3,1.3 l-0.6000000000000001,1.4 l-2.6,-0.30000000000000004 l-2.1,0.2 l-2.8,1.4 l-1.9,2.8 l-2.3,1.8 l-1.9,0.5 l-2,-0.1 l-1.3,-0.6000000000000001 l-2.9,-1.8 l0.7000000000000001,-2 l0.5,-3.5 l-1.2,-2.9 l-2.3,-1.4 l-1.6,0.2 l-0.9,-0.30000000000000004 l-3.7,-2.4 l-1.9,-0.2 l-1.9,0.5 l-1.5,-1.2 l3.5,-2.9 l3.5,-2.4 l1.7000000000000002,-0.2 l2.1,-1.2 l2.2,-1.6 l-1.3,-2.3 l-1.9,0.6000000000000001 l-2.2,-1.1 l-0.9,-0.8 l-3.1,0.8 l-1.8,-0.1 l-3.8,0.8 l-1.9,-0.8 l-4,-2 l-2.6,-0.30000000000000004 l0,-1 l1.8,-0.30000000000000004 l0.1,-1 l-3.8,-0.6000000000000001 l-0.1,-1.3 l2,0.5 l3.2,0.2 l2.9,0.5 l2.1,-1.8 l-2.4,0.5 l-2.9,-0.5 l-2.1,-1.8 l-2.2,1.2 l-3.2,-0.5 l-2.4,0.8 l-2.3,-0.2 l-4.1,1.1 l-0.4,2.9 l-2,4 l-3.1,3.7 l-4.6,2.1 l-1.7000000000000002,-0.4 l-0.9,1.1 l0.2,1.3 l1,0.9 l1.1,3.1 l-0.1,1.3 z" id="UA" name="Ukraine" class="">
 </path><circle cx="399.8999938964844" cy="390.79998779296875" id="0">
 </circle><circle cx="115.89590454101562" cy="86.38018798828125" id="1" class="" r="0">
 </circle><circle cx="521" cy="266.6000061035156" id="2">
 </circle></g></svg>